<svg xmlns="http://www.w3.org/2000/svg" width="319.86072" height="85.628998" viewBox="-89.7585 -40.03975 207.35158 25.714227"><g style="display:inline"><path d="M200.686 56.85c-4.654-.004-9.308 1.02-13.266 3.525-3.532 2.306-6.39 5.832-7.434 9.969-1.359 5.067.35 10.697 4.004 14.394 3.329 3.805 7.973 5.971 12.11 8.727 3.52 2.306 7.373 4.4 9.91 7.861.663.84 1.128 2.002.63 3.045-1.193 2.654-4.27 4.12-7.107 3.66-5.078-.706-9.321-3.825-13.447-6.635l-.342.047c-2.686 2.938-5.672 5.619-8.219 8.674 2.676 2.472 5.298 5.048 8.477 6.883 4.013 2.51 8.834 3.43 13.521 3.334 4.03-.016 8.251-.708 11.655-2.998 4.66-3.034 8.069-8.218 8.283-13.863.235-3.885-1.488-7.67-4.137-10.442-5.453-5.934-12.938-9.273-19.525-13.715-1.258-.99-2.693-1.915-3.463-3.365-.867-2.05.46-4.168 1.98-5.484 2.125-1.975 5.277-1.867 7.957-1.498 4.035.968 7.092 4.071 9.596 7.207 3.034-2.97 5.944-6.057 8.988-9.022-3.906-4.083-8.116-8.53-13.89-9.707a34.462 34.462 0 0 0-6.281-.597zm182.859.386c-2.005 0-4.01.009-6.014.035l-.002-.002c.07 5.689-.015 11.377.05 17.065-2.018-.005-4.03-.004-6.042-.004.06 3.987-.059 7.972.065 11.959a89.111 89.111 0 0 1 5.982-.016c.08 6.283-.423 12.619.535 18.858.712 4.762 3.049 9.551 7.303 12.088 5.046 2.964 11.12 3.242 16.83 3.054-.272-3.949.224-7.907-.006-11.845-3.414.027-7.09.03-10.123-1.746-2.007-1.226-2.548-3.693-2.553-5.881-.053-4.87-.02-9.744-.004-14.614 3.34-.165 6.651-1.267 9.375-3.214 2.965-2.002 4.66-5.31 5.719-8.633-5.04-.016-10.08-.026-15.115.012.016-5.7-.011-11.393.015-17.092-2.004-.014-4.01-.023-6.015-.024zm-143.74 16.866a18.51 18.51 0 0 0-6.448 1.255c-.026-.3-.074-.91-.101-1.214-3.976-.005-7.946.004-11.922-.006-.112 15.39.028 30.778-.068 46.168 4.013.053 8.031.028 12.045.017-.027-9.182-.012-18.365-.012-27.552-.182-4.415 4.87-7.878 8.974-6.358 2.65.9 4.848 3.495 4.725 6.379 0 9.177.027 18.354-.016 27.531 4.02.01 8.033.036 12.051-.017-.048-9.177-.023-18.353-.017-27.536-.273-4.607 5.233-8.085 9.359-6.19 2.461.989 4.34 3.472 4.33 6.169.037 9.193.01 18.385.01 27.578 4.013-.01 8.027.044 12.035-.025-.07-9.006-.006-18.012-.033-27.012-.123-3.286-.678-6.642-2.37-9.51-3.162-5.436-9.032-9.481-15.427-9.615-5.089-.385-10.295 1.445-13.918 5.057-3.462-3.451-8.35-5.2-13.197-5.12zm127.297.09c-5.674.22-11.154 3.814-13.35 9.091-.257.557-.46 1.17-.953 1.567.417-3.495.182-7.015.209-10.52-3.965.053-7.932-.031-11.897.049.048 15.31.048 30.624 0 45.933 4.206.027 8.418.053 12.63-.017-.065-4.35-.016-8.706-.032-13.057.038-3.9-.338-7.935 1.08-11.67 1.868-6.164 8.497-10.199 14.817-9.578-.15-3.89-.02-7.786-.069-11.681a13.939 13.939 0 0 0-2.435-.118zm-57.368.17c-10.809-.183-20.944 8.245-22.763 18.894-1.413 6.764.669 14.058 5.142 19.281 5.11 6.1 13.543 9.22 21.393 7.828 4.163-.583 7.903-2.66 11.285-5.056l-.064 5.003c4.152.022 8.3.06 12.453-.021-.06-15.293-.039-30.588-.012-45.88-4.142-.076-8.284-.033-12.42-.028.021 1.83.021 3.656-.021 5.486-4.19-3.451-9.535-5.561-14.993-5.508zm.096 11.554c5.867.102 11.387 5.091 11.42 11.14.466 6.138-4.887 11.928-11.02 12.024-4.098.289-8.213-1.894-10.353-5.383-2.365-3.606-2.397-8.572-.074-12.21 1.605-2.73 4.434-4.624 7.506-5.303h.002a10.254 10.254 0 0 1 2.52-.268z" style="fill:#0b9445;stroke-width:4.44701433" transform="matrix(.64826 0 0 .64826 -144.73 -82.19)"/><path d="M-14.84-115.718c-2.612 5.825-4.273 11.888-4.748 18.069 4.043.647 8.56 1.174 12.228 1.188 4.274-.118 8.312-.594 12.349-1.545 5.464-1.308 10.568-3.329 15.197-6.063-5.578 0-11.16-.712-16.74-2.376l-4.987-1.784c-.83-.357-1.662-.712-2.493-1.07a57.622 57.622 0 0 1-10.806-6.419z" style="fill:#1595d0;fill-opacity:1;fill-rule:nonzero;stroke:none;stroke-width:.40094915" transform="translate(-54.972 97.033)"/><path d="M-7.36-151.97c3.68 5.11 6.176 10.697 7.482 16.518.474 1.786.71 3.689.947 5.47a50.452 50.452 0 0 1-.712 14.621c6.055-.713 11.994-2.376 17.335-4.872-1.186-3.566-2.61-7.015-4.51-10.46-1.779-3.33-4.035-6.539-6.648-9.512-.12-.116-.24-.236-.357-.357-3.919-4.633-8.55-8.436-13.537-11.408z" style="fill:#60bb46;fill-opacity:1;fill-rule:nonzero;stroke:none;stroke-width:.40094915" transform="translate(-54.972 97.033)"/><path d="M-7.36-127.724c-4.75 1.665-9.26 4.044-13.178 7.012-1.187.835-2.374 1.786-3.443 2.856-4.512 4.041-8.194 9.034-10.806 14.74 4.63 2.496 9.738 4.278 15.2 5.467.474-6.181 2.135-12.244 4.747-18.069a67.211 67.211 0 0 1 7.48-12.006zm-10.962 11.372c.64.145 1.286.277 1.94.396.296.06.564.092.816.121-.252-.03-.52-.06-.817-.119a46.401 46.401 0 0 1-1.939-.398z" style="fill:#23aa4a;fill-opacity:1;fill-rule:nonzero;stroke:none;stroke-width:.40094915" transform="translate(-54.972 97.033)"/><path d="M-7.36-151.97c-4.869 2.972-9.498 6.775-13.416 11.408-.118.12-.238.241-.357.357 4.512 2.853 8.669 6.419 12.468 10.7.475.593.949 1.187 1.305 1.78 3.206 3.804 5.699 7.964 7.717 12.364a50.449 50.449 0 0 0 .712-14.62c-.237-1.782-.473-3.686-.947-5.471-1.306-5.821-3.802-11.407-7.482-16.518z" style="fill:#23aa4a;fill-opacity:1;fill-rule:nonzero;stroke:none;stroke-width:.40094915" transform="translate(-54.972 97.033)"/><path d="M17.692-120.233c-5.341 2.496-11.28 4.159-17.335 4.872-4.868.476-9.972.475-15.197-.357a57.622 57.622 0 0 0 10.806 6.42l2.493 1.069 4.987 1.784c5.58 1.664 11.162 2.376 16.74 2.376 0-5.468-.83-10.934-2.494-16.164z" style="fill:#66bce1;fill-opacity:1;fill-rule:nonzero;stroke:none;stroke-width:.40094915" transform="translate(-54.972 97.033)"/><path d="M-21.133-140.205c-2.731 3.21-5.104 6.656-7.003 10.107-1.544 2.968-2.85 5.94-3.8 8.913-1.307 3.922-2.138 7.964-2.613 12.006 2.494-3.566 5.462-6.658 8.668-9.392 1.425-1.07 2.85-2.14 4.393-3.09 4.275-2.733 9.14-4.756 14.128-6.063-.357-.594-.83-1.188-1.305-1.781-3.8-4.281-7.956-7.847-12.468-10.7z" style="fill:#8cc63f;fill-opacity:1;fill-rule:nonzero;stroke:none;stroke-width:.40094915" transform="translate(-54.972 97.033)"/></g></svg>